<mxfile host="app.diagrams.net" agent="Mozilla/5.0 (Windows NT 10.0; Win64; x64) AppleWebKit/537.36 (KHTML, like Gecko) Chrome/130.0.0.0 Safari/537.36" version="24.8.4">
  <diagram name="Page-1" id="K7aVghxCupekxmJo4TPN">
    <mxGraphModel dx="410" dy="1361" grid="1" gridSize="10" guides="1" tooltips="1" connect="1" arrows="1" fold="1" page="1" pageScale="1" pageWidth="827" pageHeight="1169" math="0" shadow="0">
      <root>
        <mxCell id="0" />
        <mxCell id="1" parent="0" />
        <mxCell id="QfRlOZS7LHyrr74KKP0C-24" value="" style="rounded=1;arcSize=40;strokeWidth=2" parent="1" vertex="1">
          <mxGeometry x="1060" y="139.12" width="220" height="80.88" as="geometry" />
        </mxCell>
        <mxCell id="QfRlOZS7LHyrr74KKP0C-9" style="edgeStyle=orthogonalEdgeStyle;rounded=0;orthogonalLoop=1;jettySize=auto;html=1;" parent="1" source="3" edge="1">
          <mxGeometry relative="1" as="geometry">
            <mxPoint x="610" y="47" as="targetPoint" />
          </mxGeometry>
        </mxCell>
        <mxCell id="3" value="Render Game and &#xa;Show Valid Moves" style="rounded=1;arcSize=40;strokeWidth=2" parent="1" vertex="1">
          <mxGeometry x="290" y="18.13" width="180" height="57.75" as="geometry" />
        </mxCell>
        <mxCell id="6" value="" style="curved=1;startArrow=none;;entryX=0;entryY=0.5;entryDx=0;entryDy=0;" parent="1" target="3" edge="1">
          <mxGeometry relative="1" as="geometry">
            <Array as="points" />
            <mxPoint x="240" y="47" as="sourcePoint" />
            <mxPoint x="230" y="80" as="targetPoint" />
          </mxGeometry>
        </mxCell>
        <mxCell id="YqURnRQXtU90plN5RvhS-14" value="" style="curved=1;startArrow=none;;entryX=0;entryY=0;entryDx=0;entryDy=0;" parent="1" target="YqURnRQXtU90plN5RvhS-13" edge="1">
          <mxGeometry relative="1" as="geometry">
            <Array as="points" />
            <mxPoint x="200" y="40" as="sourcePoint" />
            <mxPoint x="232.0502525316815" y="42.05025253168145" as="targetPoint" />
          </mxGeometry>
        </mxCell>
        <mxCell id="YqURnRQXtU90plN5RvhS-13" value="" style="ellipse;whiteSpace=wrap;html=1;aspect=fixed;" parent="1" vertex="1">
          <mxGeometry x="220" y="37" width="20" height="20" as="geometry" />
        </mxCell>
        <mxCell id="QfRlOZS7LHyrr74KKP0C-10" value="User enters action" style="text;html=1;align=center;verticalAlign=middle;resizable=0;points=[];autosize=1;strokeColor=none;fillColor=none;" parent="1" vertex="1">
          <mxGeometry x="480" y="11" width="120" height="30" as="geometry" />
        </mxCell>
        <mxCell id="QfRlOZS7LHyrr74KKP0C-12" value="Render Game and &#xa;Show Valid Moves" style="rounded=1;arcSize=40;strokeWidth=2" parent="1" vertex="1">
          <mxGeometry x="610" y="18.13" width="180" height="57.75" as="geometry" />
        </mxCell>
        <mxCell id="QfRlOZS7LHyrr74KKP0C-13" style="edgeStyle=orthogonalEdgeStyle;rounded=0;orthogonalLoop=1;jettySize=auto;html=1;exitX=1;exitY=0.5;exitDx=0;exitDy=0;" parent="1" source="QfRlOZS7LHyrr74KKP0C-12" edge="1">
          <mxGeometry relative="1" as="geometry">
            <mxPoint x="880" y="150" as="targetPoint" />
            <mxPoint x="670" y="150" as="sourcePoint" />
          </mxGeometry>
        </mxCell>
        <mxCell id="QfRlOZS7LHyrr74KKP0C-14" value="Check Valid Moves are &#xa;available" style="rounded=1;arcSize=40;strokeWidth=2" parent="1" vertex="1">
          <mxGeometry x="790" y="150" width="180" height="57.75" as="geometry" />
        </mxCell>
        <mxCell id="QfRlOZS7LHyrr74KKP0C-15" value="No doubles takes available" style="text;html=1;align=center;verticalAlign=middle;resizable=0;points=[];autosize=1;strokeColor=none;fillColor=none;" parent="1" vertex="1">
          <mxGeometry x="880" y="75.88" width="170" height="30" as="geometry" />
        </mxCell>
        <mxCell id="QfRlOZS7LHyrr74KKP0C-21" style="edgeStyle=orthogonalEdgeStyle;rounded=0;orthogonalLoop=1;jettySize=auto;html=1;exitX=1;exitY=0.5;exitDx=0;exitDy=0;" parent="1" edge="1">
          <mxGeometry relative="1" as="geometry">
            <mxPoint x="1060" y="180" as="targetPoint" />
            <mxPoint x="970" y="180" as="sourcePoint" />
            <Array as="points">
              <mxPoint x="1010" y="180" />
              <mxPoint x="1010" y="180" />
            </Array>
          </mxGeometry>
        </mxCell>
        <mxCell id="QfRlOZS7LHyrr74KKP0C-22" value="False" style="text;html=1;align=center;verticalAlign=middle;resizable=0;points=[];autosize=1;strokeColor=none;fillColor=none;" parent="1" vertex="1">
          <mxGeometry x="985" y="150" width="50" height="30" as="geometry" />
        </mxCell>
        <mxCell id="QfRlOZS7LHyrr74KKP0C-23" value="Opposite Player Wins" style="rounded=1;arcSize=40;strokeWidth=2" parent="1" vertex="1">
          <mxGeometry x="1080" y="150" width="180" height="57.75" as="geometry" />
        </mxCell>
        <mxCell id="QfRlOZS7LHyrr74KKP0C-25" style="edgeStyle=orthogonalEdgeStyle;rounded=0;orthogonalLoop=1;jettySize=auto;html=1;exitX=0.5;exitY=1;exitDx=0;exitDy=0;" parent="1" source="QfRlOZS7LHyrr74KKP0C-14" edge="1">
          <mxGeometry relative="1" as="geometry">
            <mxPoint x="880" y="290" as="targetPoint" />
            <mxPoint x="890" y="260" as="sourcePoint" />
            <Array as="points">
              <mxPoint x="880" y="260" />
            </Array>
          </mxGeometry>
        </mxCell>
        <mxCell id="QfRlOZS7LHyrr74KKP0C-26" value="True" style="text;html=1;align=center;verticalAlign=middle;resizable=0;points=[];autosize=1;strokeColor=none;fillColor=none;" parent="1" vertex="1">
          <mxGeometry x="880" y="230" width="50" height="30" as="geometry" />
        </mxCell>
        <mxCell id="QfRlOZS7LHyrr74KKP0C-27" value="Check User Action is in&#xa;Valid Moves" style="rounded=1;arcSize=40;strokeWidth=2" parent="1" vertex="1">
          <mxGeometry x="414" y="270" width="180" height="57.75" as="geometry" />
        </mxCell>
        <mxCell id="QfRlOZS7LHyrr74KKP0C-30" style="edgeStyle=orthogonalEdgeStyle;rounded=0;orthogonalLoop=1;jettySize=auto;html=1;exitX=1;exitY=0.5;exitDx=0;exitDy=0;entryX=0.5;entryY=0;entryDx=0;entryDy=0;" parent="1" target="QfRlOZS7LHyrr74KKP0C-12" edge="1">
          <mxGeometry relative="1" as="geometry">
            <mxPoint x="710" y="-290" as="targetPoint" />
            <mxPoint x="970" y="320.88" as="sourcePoint" />
            <Array as="points">
              <mxPoint x="1310" y="321" />
              <mxPoint x="1310" y="-50" />
              <mxPoint x="700" y="-50" />
            </Array>
          </mxGeometry>
        </mxCell>
        <mxCell id="QfRlOZS7LHyrr74KKP0C-31" value="False" style="text;html=1;align=center;verticalAlign=middle;resizable=0;points=[];autosize=1;strokeColor=none;fillColor=none;" parent="1" vertex="1">
          <mxGeometry x="1100" y="291" width="50" height="30" as="geometry" />
        </mxCell>
        <mxCell id="QfRlOZS7LHyrr74KKP0C-33" style="edgeStyle=orthogonalEdgeStyle;rounded=0;orthogonalLoop=1;jettySize=auto;html=1;exitX=0.5;exitY=1;exitDx=0;exitDy=0;" parent="1" edge="1">
          <mxGeometry relative="1" as="geometry">
            <mxPoint x="880" y="430.88" as="targetPoint" />
            <mxPoint x="880" y="348.63" as="sourcePoint" />
            <Array as="points">
              <mxPoint x="880" y="400.88" />
            </Array>
          </mxGeometry>
        </mxCell>
        <mxCell id="QfRlOZS7LHyrr74KKP0C-34" value="True" style="text;html=1;align=center;verticalAlign=middle;resizable=0;points=[];autosize=1;strokeColor=none;fillColor=none;" parent="1" vertex="1">
          <mxGeometry x="880" y="370.88" width="50" height="30" as="geometry" />
        </mxCell>
        <mxCell id="QfRlOZS7LHyrr74KKP0C-36" value="Board updated" style="rounded=1;arcSize=40;strokeWidth=2" parent="1" vertex="1">
          <mxGeometry x="790" y="430" width="180" height="57.75" as="geometry" />
        </mxCell>
        <mxCell id="QfRlOZS7LHyrr74KKP0C-39" value="" style="endArrow=classic;html=1;rounded=0;exitX=0.5;exitY=1;exitDx=0;exitDy=0;" parent="1" source="QfRlOZS7LHyrr74KKP0C-12" edge="1">
          <mxGeometry width="50" height="50" relative="1" as="geometry">
            <mxPoint x="750" y="230" as="sourcePoint" />
            <mxPoint x="590" y="180" as="targetPoint" />
            <Array as="points">
              <mxPoint x="700" y="180" />
            </Array>
          </mxGeometry>
        </mxCell>
        <mxCell id="QfRlOZS7LHyrr74KKP0C-40" value="&lt;span style=&quot;color: rgb(0, 0, 0); font-family: Helvetica; font-size: 12px; font-style: normal; font-variant-ligatures: normal; font-variant-caps: normal; font-weight: 400; letter-spacing: normal; orphans: 2; text-align: center; text-indent: 0px; text-transform: none; widows: 2; word-spacing: 0px; -webkit-text-stroke-width: 0px; white-space: nowrap; background-color: rgb(251, 251, 251); text-decoration-thickness: initial; text-decoration-style: initial; text-decoration-color: initial; display: inline !important; float: none;&quot;&gt;Double take available&lt;/span&gt;" style="text;whiteSpace=wrap;html=1;" parent="1" vertex="1">
          <mxGeometry x="570" y="105.88" width="130" height="40" as="geometry" />
        </mxCell>
        <mxCell id="QfRlOZS7LHyrr74KKP0C-41" value="Get available double moves" style="rounded=1;arcSize=40;strokeWidth=2" parent="1" vertex="1">
          <mxGeometry x="414" y="150" width="180" height="57.75" as="geometry" />
        </mxCell>
        <mxCell id="QfRlOZS7LHyrr74KKP0C-42" value="Check User Action is in&#xa;Valid Moves" style="rounded=1;arcSize=40;strokeWidth=2" parent="1" vertex="1">
          <mxGeometry x="800" y="300" width="180" height="57.75" as="geometry" />
        </mxCell>
        <mxCell id="QfRlOZS7LHyrr74KKP0C-43" value="" style="endArrow=classic;html=1;rounded=0;exitX=0.5;exitY=1;exitDx=0;exitDy=0;entryX=0.5;entryY=0;entryDx=0;entryDy=0;" parent="1" source="QfRlOZS7LHyrr74KKP0C-41" target="QfRlOZS7LHyrr74KKP0C-27" edge="1">
          <mxGeometry width="50" height="50" relative="1" as="geometry">
            <mxPoint x="760" y="230" as="sourcePoint" />
            <mxPoint x="810" y="180" as="targetPoint" />
          </mxGeometry>
        </mxCell>
        <mxCell id="QfRlOZS7LHyrr74KKP0C-44" value="" style="endArrow=classic;html=1;rounded=0;exitX=0;exitY=0.5;exitDx=0;exitDy=0;entryX=0.5;entryY=0;entryDx=0;entryDy=0;" parent="1" source="QfRlOZS7LHyrr74KKP0C-27" target="QfRlOZS7LHyrr74KKP0C-12" edge="1">
          <mxGeometry width="50" height="50" relative="1" as="geometry">
            <mxPoint x="540" y="280" as="sourcePoint" />
            <mxPoint x="590" y="230" as="targetPoint" />
            <Array as="points">
              <mxPoint x="170" y="299" />
              <mxPoint x="170" y="-50" />
              <mxPoint x="700" y="-50" />
            </Array>
          </mxGeometry>
        </mxCell>
        <mxCell id="QfRlOZS7LHyrr74KKP0C-45" value="False" style="text;html=1;align=center;verticalAlign=middle;resizable=0;points=[];autosize=1;strokeColor=none;fillColor=none;" parent="1" vertex="1">
          <mxGeometry x="310" y="270" width="50" height="30" as="geometry" />
        </mxCell>
        <mxCell id="QfRlOZS7LHyrr74KKP0C-48" style="edgeStyle=orthogonalEdgeStyle;rounded=0;orthogonalLoop=1;jettySize=auto;html=1;exitX=0.5;exitY=1;exitDx=0;exitDy=0;" parent="1" edge="1">
          <mxGeometry relative="1" as="geometry">
            <mxPoint x="504" y="410" as="targetPoint" />
            <mxPoint x="504" y="327.75" as="sourcePoint" />
            <Array as="points">
              <mxPoint x="504" y="380" />
            </Array>
          </mxGeometry>
        </mxCell>
        <mxCell id="QfRlOZS7LHyrr74KKP0C-49" value="True" style="text;html=1;align=center;verticalAlign=middle;resizable=0;points=[];autosize=1;strokeColor=none;fillColor=none;" parent="1" vertex="1">
          <mxGeometry x="504" y="350" width="50" height="30" as="geometry" />
        </mxCell>
        <mxCell id="QfRlOZS7LHyrr74KKP0C-50" value="Board updated" style="rounded=1;arcSize=40;strokeWidth=2" parent="1" vertex="1">
          <mxGeometry x="414" y="409.12" width="180" height="57.75" as="geometry" />
        </mxCell>
        <mxCell id="QfRlOZS7LHyrr74KKP0C-51" value="" style="endArrow=classic;html=1;rounded=0;exitX=0.5;exitY=1;exitDx=0;exitDy=0;entryX=0.5;entryY=0;entryDx=0;entryDy=0;" parent="1" source="QfRlOZS7LHyrr74KKP0C-50" target="QfRlOZS7LHyrr74KKP0C-53" edge="1">
          <mxGeometry width="50" height="50" relative="1" as="geometry">
            <mxPoint x="640" y="570" as="sourcePoint" />
            <mxPoint x="680" y="620" as="targetPoint" />
            <Array as="points">
              <mxPoint x="504" y="560" />
              <mxPoint x="840" y="560" />
            </Array>
          </mxGeometry>
        </mxCell>
        <mxCell id="QfRlOZS7LHyrr74KKP0C-52" value="" style="endArrow=classic;html=1;rounded=0;exitX=0.5;exitY=1;exitDx=0;exitDy=0;entryX=0.5;entryY=0;entryDx=0;entryDy=0;" parent="1" source="QfRlOZS7LHyrr74KKP0C-36" target="QfRlOZS7LHyrr74KKP0C-53" edge="1">
          <mxGeometry width="50" height="50" relative="1" as="geometry">
            <mxPoint x="514" y="477" as="sourcePoint" />
            <mxPoint x="680" y="620" as="targetPoint" />
            <Array as="points">
              <mxPoint x="880" y="560" />
              <mxPoint x="840" y="560" />
            </Array>
          </mxGeometry>
        </mxCell>
        <mxCell id="QfRlOZS7LHyrr74KKP0C-53" value="Check new takes are available &#xa;for the taking piece" style="rounded=1;arcSize=40;strokeWidth=2" parent="1" vertex="1">
          <mxGeometry x="750" y="620" width="180" height="57.75" as="geometry" />
        </mxCell>
        <mxCell id="QfRlOZS7LHyrr74KKP0C-54" value="Move made was a take" style="text;html=1;align=center;verticalAlign=middle;resizable=0;points=[];autosize=1;strokeColor=none;fillColor=none;" parent="1" vertex="1">
          <mxGeometry x="840" y="580" width="150" height="30" as="geometry" />
        </mxCell>
        <mxCell id="QfRlOZS7LHyrr74KKP0C-56" value="" style="endArrow=classic;html=1;rounded=0;" parent="1" edge="1">
          <mxGeometry width="50" height="50" relative="1" as="geometry">
            <mxPoint x="550" y="560" as="sourcePoint" />
            <mxPoint x="550" y="620" as="targetPoint" />
          </mxGeometry>
        </mxCell>
        <mxCell id="QfRlOZS7LHyrr74KKP0C-57" value="Switch player" style="rounded=1;arcSize=40;strokeWidth=2" parent="1" vertex="1">
          <mxGeometry x="460" y="620" width="180" height="57.75" as="geometry" />
        </mxCell>
        <mxCell id="QfRlOZS7LHyrr74KKP0C-58" value="&lt;span style=&quot;color: rgb(0, 0, 0); font-family: Helvetica; font-size: 12px; font-style: normal; font-variant-ligatures: normal; font-variant-caps: normal; font-weight: 400; letter-spacing: normal; orphans: 2; text-align: center; text-indent: 0px; text-transform: none; widows: 2; word-spacing: 0px; -webkit-text-stroke-width: 0px; white-space: nowrap; background-color: rgb(251, 251, 251); text-decoration-thickness: initial; text-decoration-style: initial; text-decoration-color: initial; display: inline !important; float: none;&quot;&gt;Move made was not a take&lt;/span&gt;" style="text;whiteSpace=wrap;html=1;" parent="1" vertex="1">
          <mxGeometry x="394" y="580" width="160" height="30" as="geometry" />
        </mxCell>
        <mxCell id="QfRlOZS7LHyrr74KKP0C-59" value="" style="endArrow=classic;html=1;rounded=0;entryX=1;entryY=0.5;entryDx=0;entryDy=0;exitX=0;exitY=0.5;exitDx=0;exitDy=0;" parent="1" source="QfRlOZS7LHyrr74KKP0C-53" target="QfRlOZS7LHyrr74KKP0C-57" edge="1">
          <mxGeometry width="50" height="50" relative="1" as="geometry">
            <mxPoint x="730" y="740" as="sourcePoint" />
            <mxPoint x="780" y="690" as="targetPoint" />
          </mxGeometry>
        </mxCell>
        <mxCell id="QfRlOZS7LHyrr74KKP0C-60" value="False" style="text;html=1;align=center;verticalAlign=middle;resizable=0;points=[];autosize=1;strokeColor=none;fillColor=none;" parent="1" vertex="1">
          <mxGeometry x="675" y="620" width="50" height="30" as="geometry" />
        </mxCell>
        <mxCell id="QfRlOZS7LHyrr74KKP0C-65" value="" style="endArrow=none;html=1;rounded=0;exitX=0.5;exitY=1;exitDx=0;exitDy=0;" parent="1" source="QfRlOZS7LHyrr74KKP0C-57" edge="1">
          <mxGeometry width="50" height="50" relative="1" as="geometry">
            <mxPoint x="690" y="790" as="sourcePoint" />
            <mxPoint x="550" y="720" as="targetPoint" />
          </mxGeometry>
        </mxCell>
        <mxCell id="QfRlOZS7LHyrr74KKP0C-67" value="" style="endArrow=none;html=1;rounded=0;exitX=0.5;exitY=1;exitDx=0;exitDy=0;" parent="1" edge="1">
          <mxGeometry width="50" height="50" relative="1" as="geometry">
            <mxPoint x="840" y="677.75" as="sourcePoint" />
            <mxPoint x="840" y="719.75" as="targetPoint" />
          </mxGeometry>
        </mxCell>
        <mxCell id="QfRlOZS7LHyrr74KKP0C-68" value="" style="endArrow=none;html=1;rounded=0;" parent="1" edge="1">
          <mxGeometry width="50" height="50" relative="1" as="geometry">
            <mxPoint x="510" y="720" as="sourcePoint" />
            <mxPoint x="880" y="720" as="targetPoint" />
          </mxGeometry>
        </mxCell>
        <mxCell id="QfRlOZS7LHyrr74KKP0C-74" value="" style="endArrow=classic;html=1;rounded=0;" parent="1" edge="1">
          <mxGeometry width="50" height="50" relative="1" as="geometry">
            <mxPoint x="510" y="720" as="sourcePoint" />
            <mxPoint x="510" y="800" as="targetPoint" />
          </mxGeometry>
        </mxCell>
        <mxCell id="QfRlOZS7LHyrr74KKP0C-75" value="" style="rounded=1;arcSize=40;strokeWidth=2" parent="1" vertex="1">
          <mxGeometry x="440" y="800" width="150" height="70" as="geometry" />
        </mxCell>
        <mxCell id="QfRlOZS7LHyrr74KKP0C-77" value="Draw" style="rounded=1;arcSize=40;strokeWidth=2" parent="1" vertex="1">
          <mxGeometry x="450" y="806.13" width="130" height="57.75" as="geometry" />
        </mxCell>
        <mxCell id="QfRlOZS7LHyrr74KKP0C-78" value="" style="rounded=1;arcSize=40;strokeWidth=2" parent="1" vertex="1">
          <mxGeometry x="800" y="800.01" width="150" height="70" as="geometry" />
        </mxCell>
        <mxCell id="QfRlOZS7LHyrr74KKP0C-79" value="Current player wins" style="rounded=1;arcSize=40;strokeWidth=2" parent="1" vertex="1">
          <mxGeometry x="810" y="806.14" width="130" height="57.75" as="geometry" />
        </mxCell>
        <mxCell id="QfRlOZS7LHyrr74KKP0C-80" value="" style="endArrow=classic;html=1;rounded=0;" parent="1" edge="1">
          <mxGeometry width="50" height="50" relative="1" as="geometry">
            <mxPoint x="880" y="720" as="sourcePoint" />
            <mxPoint x="880" y="800" as="targetPoint" />
          </mxGeometry>
        </mxCell>
        <mxCell id="QfRlOZS7LHyrr74KKP0C-81" value="" style="endArrow=classic;html=1;rounded=0;" parent="1" edge="1">
          <mxGeometry width="50" height="50" relative="1" as="geometry">
            <mxPoint x="710" y="720" as="sourcePoint" />
            <mxPoint x="700" y="18" as="targetPoint" />
            <Array as="points">
              <mxPoint x="710" y="910" />
              <mxPoint x="170" y="906.13" />
              <mxPoint x="170" y="-50" />
              <mxPoint x="700" y="-50" />
            </Array>
          </mxGeometry>
        </mxCell>
        <mxCell id="QfRlOZS7LHyrr74KKP0C-82" value="Otherwise" style="text;html=1;align=center;verticalAlign=middle;resizable=0;points=[];autosize=1;strokeColor=none;fillColor=none;" parent="1" vertex="1">
          <mxGeometry x="710" y="800" width="80" height="30" as="geometry" />
        </mxCell>
        <mxCell id="QfRlOZS7LHyrr74KKP0C-83" value="40 moves without a capture&lt;div&gt;or&lt;/div&gt;&lt;div&gt;Both players have 1 piece&lt;/div&gt;" style="text;html=1;align=center;verticalAlign=middle;resizable=0;points=[];autosize=1;strokeColor=none;fillColor=none;" parent="1" vertex="1">
          <mxGeometry x="340" y="730" width="170" height="60" as="geometry" />
        </mxCell>
        <mxCell id="QfRlOZS7LHyrr74KKP0C-84" value="Opposite player has no pieces&lt;div&gt;or&lt;/div&gt;&lt;div&gt;Opposite player has no moves&lt;/div&gt;" style="text;html=1;align=center;verticalAlign=middle;resizable=0;points=[];autosize=1;strokeColor=none;fillColor=none;" parent="1" vertex="1">
          <mxGeometry x="880" y="730" width="190" height="60" as="geometry" />
        </mxCell>
      </root>
    </mxGraphModel>
  </diagram>
</mxfile>
